<mxfile host="app.diagrams.net" modified="2022-02-28T16:16:53.277Z" agent="5.0 (Windows NT 10.0; Win64; x64) AppleWebKit/537.36 (KHTML, like Gecko) Chrome/98.0.4758.102 Safari/537.36" etag="kYLoY1XF2dUNHKJXOKH3" version="16.6.4" type="github">
  <diagram id="Scs2ysN6fNONZ3qECgQ_" name="Page-1">
    <mxGraphModel dx="1422" dy="762" grid="1" gridSize="10" guides="1" tooltips="1" connect="1" arrows="1" fold="1" page="1" pageScale="1" pageWidth="827" pageHeight="1169" math="0" shadow="0">
      <root>
        <mxCell id="0" />
        <mxCell id="1" parent="0" />
        <mxCell id="zw8qbgfdeLxJNtw6WIaa-27" style="edgeStyle=orthogonalEdgeStyle;rounded=0;orthogonalLoop=1;jettySize=auto;html=1;" edge="1" parent="1" source="zw8qbgfdeLxJNtw6WIaa-1" target="zw8qbgfdeLxJNtw6WIaa-2">
          <mxGeometry relative="1" as="geometry" />
        </mxCell>
        <mxCell id="zw8qbgfdeLxJNtw6WIaa-1" value="Оптимизация работы сайта bk.ru" style="rounded=0;whiteSpace=wrap;html=1;" vertex="1" parent="1">
          <mxGeometry x="340" y="80" width="120" height="60" as="geometry" />
        </mxCell>
        <mxCell id="zw8qbgfdeLxJNtw6WIaa-15" style="edgeStyle=orthogonalEdgeStyle;rounded=0;orthogonalLoop=1;jettySize=auto;html=1;" edge="1" parent="1" source="zw8qbgfdeLxJNtw6WIaa-2" target="zw8qbgfdeLxJNtw6WIaa-6">
          <mxGeometry relative="1" as="geometry" />
        </mxCell>
        <mxCell id="zw8qbgfdeLxJNtw6WIaa-16" style="edgeStyle=orthogonalEdgeStyle;rounded=0;orthogonalLoop=1;jettySize=auto;html=1;entryX=0;entryY=0.5;entryDx=0;entryDy=0;" edge="1" parent="1" source="zw8qbgfdeLxJNtw6WIaa-2" target="zw8qbgfdeLxJNtw6WIaa-9">
          <mxGeometry relative="1" as="geometry" />
        </mxCell>
        <mxCell id="zw8qbgfdeLxJNtw6WIaa-24" style="edgeStyle=orthogonalEdgeStyle;rounded=0;orthogonalLoop=1;jettySize=auto;html=1;" edge="1" parent="1" source="zw8qbgfdeLxJNtw6WIaa-2" target="zw8qbgfdeLxJNtw6WIaa-3">
          <mxGeometry relative="1" as="geometry" />
        </mxCell>
        <mxCell id="zw8qbgfdeLxJNtw6WIaa-2" value="Сбор информации о пользовании сайтом юзерами" style="rounded=0;whiteSpace=wrap;html=1;" vertex="1" parent="1">
          <mxGeometry x="340" y="190" width="120" height="60" as="geometry" />
        </mxCell>
        <mxCell id="zw8qbgfdeLxJNtw6WIaa-17" style="edgeStyle=orthogonalEdgeStyle;rounded=0;orthogonalLoop=1;jettySize=auto;html=1;" edge="1" parent="1" source="zw8qbgfdeLxJNtw6WIaa-3" target="zw8qbgfdeLxJNtw6WIaa-8">
          <mxGeometry relative="1" as="geometry" />
        </mxCell>
        <mxCell id="zw8qbgfdeLxJNtw6WIaa-18" style="edgeStyle=orthogonalEdgeStyle;rounded=0;orthogonalLoop=1;jettySize=auto;html=1;entryX=0;entryY=0.5;entryDx=0;entryDy=0;" edge="1" parent="1" source="zw8qbgfdeLxJNtw6WIaa-3" target="zw8qbgfdeLxJNtw6WIaa-10">
          <mxGeometry relative="1" as="geometry" />
        </mxCell>
        <mxCell id="zw8qbgfdeLxJNtw6WIaa-25" style="edgeStyle=orthogonalEdgeStyle;rounded=0;orthogonalLoop=1;jettySize=auto;html=1;entryX=0.5;entryY=0;entryDx=0;entryDy=0;" edge="1" parent="1" source="zw8qbgfdeLxJNtw6WIaa-3" target="zw8qbgfdeLxJNtw6WIaa-4">
          <mxGeometry relative="1" as="geometry" />
        </mxCell>
        <mxCell id="zw8qbgfdeLxJNtw6WIaa-3" value="Визуальное оформление сайта" style="rounded=0;whiteSpace=wrap;html=1;" vertex="1" parent="1">
          <mxGeometry x="340" y="270" width="120" height="60" as="geometry" />
        </mxCell>
        <mxCell id="zw8qbgfdeLxJNtw6WIaa-20" value="" style="edgeStyle=orthogonalEdgeStyle;rounded=0;orthogonalLoop=1;jettySize=auto;html=1;" edge="1" parent="1" source="zw8qbgfdeLxJNtw6WIaa-4" target="zw8qbgfdeLxJNtw6WIaa-13">
          <mxGeometry relative="1" as="geometry" />
        </mxCell>
        <mxCell id="zw8qbgfdeLxJNtw6WIaa-21" style="edgeStyle=orthogonalEdgeStyle;rounded=0;orthogonalLoop=1;jettySize=auto;html=1;entryX=0;entryY=0.5;entryDx=0;entryDy=0;" edge="1" parent="1" source="zw8qbgfdeLxJNtw6WIaa-4" target="zw8qbgfdeLxJNtw6WIaa-11">
          <mxGeometry relative="1" as="geometry" />
        </mxCell>
        <mxCell id="zw8qbgfdeLxJNtw6WIaa-26" style="edgeStyle=orthogonalEdgeStyle;rounded=0;orthogonalLoop=1;jettySize=auto;html=1;" edge="1" parent="1" source="zw8qbgfdeLxJNtw6WIaa-4">
          <mxGeometry relative="1" as="geometry">
            <mxPoint x="400" y="430" as="targetPoint" />
          </mxGeometry>
        </mxCell>
        <mxCell id="zw8qbgfdeLxJNtw6WIaa-4" value="Обеспечение работоспособности сайта" style="rounded=0;whiteSpace=wrap;html=1;" vertex="1" parent="1">
          <mxGeometry x="340" y="360" width="120" height="60" as="geometry" />
        </mxCell>
        <mxCell id="zw8qbgfdeLxJNtw6WIaa-22" style="edgeStyle=orthogonalEdgeStyle;rounded=0;orthogonalLoop=1;jettySize=auto;html=1;entryX=0;entryY=0.5;entryDx=0;entryDy=0;" edge="1" parent="1" source="zw8qbgfdeLxJNtw6WIaa-5" target="zw8qbgfdeLxJNtw6WIaa-12">
          <mxGeometry relative="1" as="geometry" />
        </mxCell>
        <mxCell id="zw8qbgfdeLxJNtw6WIaa-23" style="edgeStyle=orthogonalEdgeStyle;rounded=0;orthogonalLoop=1;jettySize=auto;html=1;entryX=1;entryY=0.5;entryDx=0;entryDy=0;" edge="1" parent="1" source="zw8qbgfdeLxJNtw6WIaa-5" target="zw8qbgfdeLxJNtw6WIaa-14">
          <mxGeometry relative="1" as="geometry" />
        </mxCell>
        <mxCell id="zw8qbgfdeLxJNtw6WIaa-5" value="Устрание уязвимостей в безопасности сайта" style="rounded=0;whiteSpace=wrap;html=1;" vertex="1" parent="1">
          <mxGeometry x="340" y="440" width="120" height="60" as="geometry" />
        </mxCell>
        <mxCell id="zw8qbgfdeLxJNtw6WIaa-6" value="Google forms" style="rounded=0;whiteSpace=wrap;html=1;" vertex="1" parent="1">
          <mxGeometry x="190" y="190" width="120" height="60" as="geometry" />
        </mxCell>
        <mxCell id="zw8qbgfdeLxJNtw6WIaa-8" value="ReactJs" style="rounded=0;whiteSpace=wrap;html=1;" vertex="1" parent="1">
          <mxGeometry x="190" y="270" width="120" height="60" as="geometry" />
        </mxCell>
        <mxCell id="zw8qbgfdeLxJNtw6WIaa-9" value="Социальный аналитик" style="rounded=1;whiteSpace=wrap;html=1;" vertex="1" parent="1">
          <mxGeometry x="490" y="190" width="120" height="60" as="geometry" />
        </mxCell>
        <mxCell id="zw8qbgfdeLxJNtw6WIaa-10" value="Javascript-разработчик" style="rounded=1;whiteSpace=wrap;html=1;" vertex="1" parent="1">
          <mxGeometry x="490" y="270" width="120" height="60" as="geometry" />
        </mxCell>
        <mxCell id="zw8qbgfdeLxJNtw6WIaa-11" value="ASP.NET developer" style="rounded=1;whiteSpace=wrap;html=1;" vertex="1" parent="1">
          <mxGeometry x="490" y="360" width="120" height="60" as="geometry" />
        </mxCell>
        <mxCell id="zw8qbgfdeLxJNtw6WIaa-12" value="специалист по информационной безопасности" style="rounded=1;whiteSpace=wrap;html=1;" vertex="1" parent="1">
          <mxGeometry x="490" y="440" width="120" height="60" as="geometry" />
        </mxCell>
        <mxCell id="zw8qbgfdeLxJNtw6WIaa-13" value="C#" style="rounded=0;whiteSpace=wrap;html=1;" vertex="1" parent="1">
          <mxGeometry x="190" y="360" width="120" height="60" as="geometry" />
        </mxCell>
        <mxCell id="zw8qbgfdeLxJNtw6WIaa-14" value="Nginx" style="rounded=0;whiteSpace=wrap;html=1;" vertex="1" parent="1">
          <mxGeometry x="190" y="440" width="120" height="60" as="geometry" />
        </mxCell>
      </root>
    </mxGraphModel>
  </diagram>
</mxfile>
